<svg xmlns="http://www.w3.org/2000/svg" xmlns:xlink="http://www.w3.org/1999/xlink" width="500" zoomAndPan="magnify" viewBox="0 0 375 374.999991" height="500" preserveAspectRatio="xMidYMid meet" version="1.0"><defs><clipPath id="ddf22d6ba3"><path d="M 82.558594 80.800781 L 278 80.800781 L 278 252 L 82.558594 252 Z M 82.558594 80.800781 " clip-rule="nonzero"/></clipPath><clipPath id="1bceabe772"><path d="M 111 169 L 280.558594 169 L 280.558594 281 L 111 281 Z M 111 169 " clip-rule="nonzero"/></clipPath></defs><g clip-path="url(#ddf22d6ba3)"><path fill="#b1baff" d="M 193.511719 240.859375 C 190.230469 241.351562 186.800781 241.601562 183.222656 241.601562 C 165.550781 241.601562 151.171875 235.960938 140.082031 224.683594 C 129.179688 213.214844 123.726562 199.304688 123.726562 182.949219 C 123.726562 163.589844 129.367188 148.175781 140.644531 136.707031 C 151.921875 125.242188 166.585938 119.507812 184.632812 119.507812 C 210.382812 119.507812 227.019531 130.316406 234.539062 151.933594 L 277.964844 151.933594 C 272.511719 129 261.140625 111.519531 243.84375 99.488281 C 226.363281 87.082031 206.4375 80.878906 184.066406 80.878906 C 155.308594 80.878906 131.152344 90.464844 111.601562 109.640625 C 92.238281 128.8125 82.558594 153.34375 82.558594 183.234375 C 82.558594 232.097656 113.875 254.660156 159.933594 250.53125 C 171.640625 249.484375 183.054688 246.375 193.511719 240.859375 Z M 193.511719 240.859375 " fill-opacity="" fill-rule="nonzero"/></g><g clip-path="url(#1bceabe772)"><path fill="#b1baff" d="M 280.21875 169.699219 L 280.21875 276.566406 L 246.523438 276.566406 L 246.667969 250.058594 C 215.253906 294.117188 146.257812 287.253906 111.039062 252.03125 C 166.511719 274.191406 219.785156 249.066406 236.230469 205.789062 L 179.554688 205.789062 L 179.554688 169.699219 Z M 280.21875 169.699219 " fill-opacity="1" fill-rule="nonzero"/></g></svg>